HIERARCHY
ROOT Hips
{
	OFFSET 0.000000 0.000000 0.000000
	CHANNELS 6 Xposition Yposition Zposition Xrotation Yrotation Zrotation
	JOINT LeftUpLeg_virtual
	{
		OFFSET 0.000000 0.000000 0.000000
		CHANNELS 3 Xrotation Yrotation Zrotation
		JOINT LeftUpLeg
		{
			OFFSET 13.026900 -6.336304 -1.092800
			CHANNELS 3 Xrotation Yrotation Zrotation
			JOINT LeftLeg
			{
				OFFSET 0.524474 -46.096886 9.782700
				CHANNELS 3 Xrotation Yrotation Zrotation
				JOINT LeftFoot
				{
					OFFSET -0.524474 -53.427422 -12.948200
					CHANNELS 3 Xrotation Yrotation Zrotation
					JOINT LeftToeBase
					{
						OFFSET 0.192200 -14.009700 16.364100
						CHANNELS 3 Xrotation Yrotation Zrotation
						JOINT LeftToe_End
						{
							OFFSET -1.784700 -0.561700 9.474800
							CHANNELS 3 Xrotation Yrotation Zrotation
							End Site
							{
								OFFSET 0 0 0
							}
						}
					}
				}
			}
		}
	}
	JOINT RightUpLeg_virtual
	{
		OFFSET 0.000000 0.000000 0.000000
		CHANNELS 3 Xrotation Yrotation Zrotation
		JOINT RightUpLeg
		{
			OFFSET -12.883000 -6.336304 -1.092800
			CHANNELS 3 Xrotation Yrotation Zrotation
			JOINT RightLeg
			{
				OFFSET -0.524587 -46.096825 9.782800
				CHANNELS 3 Xrotation Yrotation Zrotation
				JOINT RightFoot
				{
					OFFSET 0.524587 -53.427383 -12.948300
					CHANNELS 3 Xrotation Yrotation Zrotation
					JOINT RightToeBase
					{
						OFFSET -0.192200 -14.009700 16.364100
						CHANNELS 3 Xrotation Yrotation Zrotation
						JOINT RightToe_End
						{
							OFFSET 1.784700 -0.561700 9.474800
							CHANNELS 3 Xrotation Yrotation Zrotation
							End Site
							{
								OFFSET 0 0 0
							}
						}
					}
				}
			}
		}
	}
	JOINT Spine_virtual
	{
		OFFSET 0.000000 0.000000 0.000000
		CHANNELS 3 Xrotation Yrotation Zrotation
		JOINT Spine
		{
			OFFSET 0.072000 7.257294 -0.789700
			CHANNELS 3 Xrotation Yrotation Zrotation
			JOINT Spine1
			{
				OFFSET 0.000000 12.508769 -0.658067
				CHANNELS 3 Xrotation Yrotation Zrotation
				JOINT Spine1_split
				{
					OFFSET 0.000000 12.508769 -0.658067
					CHANNELS 3 Xrotation Yrotation Zrotation
					JOINT Spine2
					{
						OFFSET 0.000000 12.508769 -0.658067
						CHANNELS 3 Xrotation Yrotation Zrotation
						JOINT Neck_virtual
						{
							OFFSET 0.000000 0.000000 0.000000
							CHANNELS 3 Xrotation Yrotation Zrotation
							JOINT Neck
							{
								OFFSET 0.000000 14.033295 7.520400
								CHANNELS 3 Xrotation Yrotation Zrotation
								JOINT Head
								{
									OFFSET 0.000000 8.198502 5.703100
									CHANNELS 3 Xrotation Yrotation Zrotation
									JOINT HeadTop_End
									{
										OFFSET 0.000000 17.760803 13.332701
										CHANNELS 3 Xrotation Yrotation Zrotation
										End Site
										{
											OFFSET 0 0 0
										}
									}
								}
							}
						}
						JOINT LeftShoulder_virtual
						{
							OFFSET 0.000000 0.000000 0.000000
							CHANNELS 3 Xrotation Yrotation Zrotation
							JOINT LeftShoulder
							{
								OFFSET 6.292450 5.785301 -0.669000
								CHANNELS 3 Xrotation Yrotation Zrotation
								JOINT LeftShoulder_split
								{
									OFFSET 6.292450 5.785301 -0.669000
									CHANNELS 3 Xrotation Yrotation Zrotation
									JOINT LeftArm
									{
										OFFSET 13.907140 -6.093903 1.965100
										CHANNELS 3 Xrotation Yrotation Zrotation
										JOINT LeftForeArm
										{
											OFFSET 34.140198 0.000000 0.000000
											CHANNELS 3 Xrotation Yrotation Zrotation
											JOINT LeftHand
											{
												OFFSET 40.960209 0.000000 0.000000
												CHANNELS 3 Xrotation Yrotation Zrotation
												End Site
												{
													OFFSET 0 0 0
												}
											}
										}
									}
								}
							}
						}
						JOINT RightShoulder_virtual
						{
							OFFSET 0.000000 0.000000 0.000000
							CHANNELS 3 Xrotation Yrotation Zrotation
							JOINT RightShoulder
							{
								OFFSET -6.292450 5.785301 -0.669000
								CHANNELS 3 Xrotation Yrotation Zrotation
								JOINT RightShoulder_split
								{
									OFFSET -6.292450 5.785301 -0.669000
									CHANNELS 3 Xrotation Yrotation Zrotation
									JOINT RightArm
									{
										OFFSET -13.907140 -6.093903 1.965100
										CHANNELS 3 Xrotation Yrotation Zrotation
										JOINT RightForeArm
										{
											OFFSET -34.140198 0.000000 0.000000
											CHANNELS 3 Xrotation Yrotation Zrotation
											JOINT RightHand
											{
												OFFSET -40.960209 0.000000 0.000000
												CHANNELS 3 Xrotation Yrotation Zrotation
												End Site
												{
													OFFSET 0 0 0
												}
											}
										}
									}
								}
							}
						}
					}
				}
			}
		}
	}
}
MOTION
Frames: 7
Frame Time: 0.03333333
-0.268448 117.976028 1.811245 0.000000 0.000000 0.000000 -6.151149 -17.064154 -1.629588 2.244721 22.463427 4.020245 8.018244 5.751489 0.522561 -9.930982 -0.956128 -0.372595 2.027499 0.427816 -0.732026 0.000000 0.000000 0.000000 -6.236071 -14.652316 -1.508536 -3.775904 -7.917190 -11.118056 7.424848 -10.347670 -0.353217 5.045638 -2.041957 5.158388 -4.912678 -0.450082 -0.889881 0.000000 0.000000 0.000000 -6.035406 -16.899397 -2.244038 10.257317 2.558130 0.667194 -4.510096 1.369687 -0.952153 0.862861 0.512339 0.137028 0.000000 0.000000 0.000000 -5.728773 3.770012 -1.369469 5.273236 3.708782 1.335957 2.042157 -6.436814 4.929613 0.000000 0.000000 0.000000 -6.071257 3.807316 -1.608118 2.335994 -13.216094 -2.801286 -1.946767 -2.148765 -0.144855 15.364622 6.014769 -74.945104 3.881064 -10.147257 0.936712 0.000000 0.000000 0.000000 -4.958791 3.972655 -1.478129 1.116541 2.898293 4.985740 -3.399063 -1.218367 -1.275280 0.568331 7.815803 79.911588 2.270854 20.524070 1.696692 0.000000 0.000000 0.000000 
-0.190495 117.843781 1.797775 0.000000 0.000000 0.000000 -6.237705 -17.420121 -1.639713 1.880454 22.420110 3.996571 8.636471 5.695606 0.635521 -10.014688 -1.016029 -0.367651 2.077299 0.418738 -0.754302 0.000000 0.000000 0.000000 -6.250085 -14.673468 -1.520943 -3.873119 -8.058954 -10.987835 7.143152 -10.502681 -0.480012 5.229700 -2.190305 5.260248 -5.077337 -0.397947 -0.892700 0.000000 0.000000 0.000000 -6.198863 -17.001770 -2.314800 10.207132 2.518074 0.687803 -4.564829 1.363883 -1.003384 0.762212 0.575585 0.100942 0.000000 0.000000 0.000000 -5.854435 3.760757 -1.416080 5.342072 3.670287 1.383644 2.041373 -6.414002 4.882321 0.000000 0.000000 0.000000 -6.093837 3.806657 -1.662763 2.309208 -13.101123 -2.944746 -1.986982 -2.038171 -0.144031 15.340185 6.393600 -74.687504 3.696847 -10.023525 0.746922 0.000000 0.000000 0.000000 -4.950535 3.978873 -1.541814 1.100389 2.999278 5.104563 -3.242764 -1.164801 -1.260313 0.610252 7.887330 80.040617 2.359394 21.022506 1.709391 0.000000 0.000000 0.000000 
-0.102059 117.619469 1.746258 0.000000 0.000000 0.000000 -6.165757 -17.547321 -1.696040 1.027066 22.171916 4.241636 9.869975 5.402501 0.786657 -10.108914 -1.340368 -0.380761 2.025510 0.398730 -0.775773 0.000000 0.000000 0.000000 -6.256279 -14.466824 -1.616935 -4.083201 -8.529780 -10.847595 7.244870 -10.555161 -0.587952 4.942497 -2.211653 5.519088 -5.063657 -0.293293 -0.767290 0.000000 0.000000 0.000000 -6.192232 -17.077162 -2.411122 10.099193 2.446164 0.784117 -4.623272 1.349946 -1.079607 0.751541 0.559415 0.112757 0.000000 0.000000 0.000000 -5.975622 3.742706 -1.489176 5.385793 3.629180 1.314458 1.956621 -6.502157 5.018173 0.000000 0.000000 0.000000 -6.104181 3.788017 -1.720186 2.245308 -12.912313 -3.175628 -2.041215 -2.076832 -0.175409 15.321661 6.778471 -74.079180 3.717067 -9.718927 0.625937 0.000000 0.000000 0.000000 -4.945046 3.964587 -1.621890 1.065250 3.030686 5.328158 -3.281170 -1.176241 -1.263887 0.629922 8.470836 79.898563 2.641533 21.563177 1.776515 0.000000 0.000000 0.000000 
0.057487 117.312714 1.520374 0.000000 0.000000 0.000000 -5.988490 -17.429268 -1.751260 -0.198082 21.847403 4.659631 11.483176 5.009368 0.925712 -10.196421 -1.867308 -0.293359 1.910582 0.364041 -0.768746 0.000000 0.000000 0.000000 -6.268969 -14.072961 -1.739248 -4.420697 -9.226067 -10.773181 7.602280 -10.467185 -0.683470 4.248262 -2.142828 5.866223 -4.724365 -0.151309 -0.529834 0.000000 0.000000 0.000000 -6.021445 -17.141652 -2.505042 9.974291 2.354248 0.906265 -4.669527 1.339277 -1.163501 0.844543 0.551204 0.167118 0.000000 0.000000 0.000000 -6.088000 3.721095 -1.566619 5.398789 3.582593 1.166123 1.824674 -6.685195 5.311737 0.000000 0.000000 0.000000 -6.093406 3.760940 -1.765850 2.152883 -12.656440 -3.471223 -1.991487 -2.286487 -0.197767 15.192593 6.999501 -73.267965 3.909834 -9.309664 0.534846 0.000000 0.000000 0.000000 -4.936372 3.937239 -1.701484 1.015753 2.987155 5.641431 -3.461065 -1.200353 -1.281038 0.663058 9.372336 79.457134 3.094820 22.069846 1.909896 0.000000 0.000000 0.000000 
0.315155 116.939377 1.065491 0.000000 0.000000 0.000000 -5.751393 -17.186986 -1.760741 -1.561655 21.605989 5.068365 13.185217 4.659743 1.010809 -10.335928 -2.456664 0.037493 1.821880 0.311887 -0.740005 0.000000 0.000000 0.000000 -6.243629 -13.654679 -1.801352 -4.824903 -10.002807 -10.790204 7.944710 -10.235739 -0.791929 3.314295 -2.005269 6.235172 -4.153802 -0.013327 -0.214827 0.000000 0.000000 0.000000 -5.752977 -17.252619 -2.555278 9.902858 2.258115 0.960773 -4.705573 1.343538 -1.235705 0.974561 0.636341 0.251588 0.000000 0.000000 0.000000 -6.181909 3.712460 -1.628348 5.341009 3.540381 1.028559 1.663662 -6.870032 5.705589 0.000000 0.000000 0.000000 -6.083729 3.746845 -1.785801 2.052501 -12.354523 -3.775601 -1.863443 -2.603896 -0.085831 14.905462 7.016780 -72.401904 4.185229 -8.949466 0.417450 0.000000 0.000000 0.000000 -4.928919 3.910086 -1.759407 0.950912 2.847385 6.040871 -3.715325 -1.186365 -1.296589 0.734858 10.333882 78.745060 3.676729 22.437364 2.129939 0.000000 0.000000 0.000000 
0.704650 116.493118 0.446987 0.000000 0.000000 0.000000 -5.452390 -17.001869 -1.684807 -2.847000 21.632486 5.289409 14.679646 4.448267 1.002078 -10.598262 -2.978162 0.647998 1.816127 0.251332 -0.712250 0.000000 0.000000 0.000000 -6.152261 -13.457005 -1.773794 -5.345186 -10.750996 -10.934084 8.118451 -9.874989 -0.913055 2.525663 -1.845073 6.594735 -3.576445 0.080191 0.096366 0.000000 0.000000 0.000000 -5.489108 -17.499781 -2.545404 9.954051 2.178994 0.874076 -4.745860 1.378396 -1.272218 1.035804 0.782928 0.333851 0.000000 0.000000 0.000000 -6.249895 3.725910 -1.649403 5.201793 3.522954 0.977730 1.504111 -6.968156 6.120680 0.000000 0.000000 0.000000 -6.083400 3.759180 -1.766277 1.967207 -11.993868 -4.030082 -1.720431 -2.879505 0.110295 14.419550 6.878856 -71.600347 4.383532 -8.788416 0.196098 0.000000 0.000000 0.000000 -4.924565 3.899791 -1.772114 0.866294 2.633617 6.496971 -3.991278 -1.136527 -1.312234 0.864339 11.069904 77.793901 4.340009 22.555042 2.441415 0.000000 0.000000 0.000000 
1.145893 116.041077 -0.233994 0.000000 0.000000 0.000000 -5.188949 -17.136578 -1.540573 -3.821354 22.027782 5.262769 15.690435 4.360869 0.931160 -10.913625 -3.342316 1.389094 1.813633 0.193098 -0.686748 0.000000 0.000000 0.000000 -6.057355 -13.675375 -1.666468 -6.071558 -11.349997 -11.137336 8.038795 -9.413732 -1.003707 2.290119 -1.694288 6.991790 -3.326007 0.072877 0.329981 0.000000 0.000000 0.000000 -5.353052 -17.881674 -2.472342 10.214872 2.115897 0.580051 -4.799295 1.441656 -1.253790 1.007946 0.895355 0.402266 0.000000 0.000000 0.000000 -6.280234 3.761918 -1.608197 4.973649 3.558469 1.074259 1.355980 -6.920425 6.476681 0.000000 0.000000 0.000000 -6.102332 3.804904 -1.695515 1.897467 -11.570673 -4.196263 -1.571749 -3.115424 0.322737 13.775347 6.689899 -70.927068 4.365557 -8.845909 -0.192677 0.000000 0.000000 0.000000 -4.937379 3.915648 -1.716053 0.758554 2.379510 6.979597 -4.230379 -1.055098 -1.322468 1.019551 11.445408 76.724765 5.031634 22.400384 2.830828 0.000000 0.000000 0.000000 
